<?xml version="1.0" encoding="UTF-8"?>
<!DOCTYPE svg PUBLIC "-//W3C//DTD SVG 1.1//EN" "http://www.w3.org/Graphics/SVG/1.1/DTD/svg11.dtd">
<svg xmlns="http://www.w3.org/2000/svg" version="1.1" width="1296px" height="1296px" style="shape-rendering:geometricPrecision; text-rendering:geometricPrecision; image-rendering:optimizeQuality; fill-rule:evenodd; clip-rule:evenodd" xmlns:xlink="http://www.w3.org/1999/xlink">
<g><path style="opacity:0.012" fill="#c5c5c5" d="M 578.5,-0.5 C 579.167,-0.5 579.833,-0.5 580.5,-0.5C 579.833,0.833333 579.167,0.833333 578.5,-0.5 Z"/></g>
<g><path style="opacity:1" fill="#f7f7f8" d="M 581.5,-0.5 C 622.5,-0.5 663.5,-0.5 704.5,-0.5C 703.391,0.28997 702.058,0.78997 700.5,1C 890.327,22.2963 1043.49,107.796 1160,257.5C 1200.44,312.034 1232.27,371.367 1255.5,435.5C 1266.8,471.163 1275.64,507.496 1282,544.5C 1308.41,719.589 1269.74,881.256 1166,1029.5C 1049.46,1183.39 894.629,1271.56 701.5,1294C 702.056,1294.38 702.389,1294.88 702.5,1295.5C 662.167,1295.5 621.833,1295.5 581.5,1295.5C 582.953,1294.18 582.619,1293.34 580.5,1293C 535.311,1288.87 491.311,1280.37 448.5,1267.5C 282.746,1212.24 156.913,1108.58 71,956.5C 34.6234,888.87 10.79,817.204 -0.5,741.5C -0.5,678.833 -0.5,616.167 -0.5,553.5C 30.7863,365.66 124.12,217.493 279.5,109C 371.472,48.2277 472.472,12.2277 582.5,1C 581.944,0.617425 581.611,0.117425 581.5,-0.5 Z"/></g>
<g><path style="opacity:0.004" fill="#fefffe" d="M 825.5,24.5 C 825.897,23.475 826.563,23.3083 827.5,24C 826.906,24.4643 826.239,24.631 825.5,24.5 Z"/></g>
<g><path style="opacity:0.008" fill="#80ff7f" d="M 446.5,26.5 C 447.833,27.1667 447.833,27.1667 446.5,26.5 Z"/></g>
<g><path style="opacity:1" fill="#121212" d="M 668.5,648.5 C 658.175,653.328 648.175,658.661 638.5,664.5C 596.867,682.985 559.7,707.985 527,739.5C 493.653,778.207 478.653,823.207 482,874.5C 484.505,916.335 500.671,951.835 530.5,981C 580.293,1024.53 636.293,1034.53 698.5,1011C 756.025,984.155 787.525,938.988 793,875.5C 794.353,853.901 791.353,832.901 784,812.5C 779.541,803.252 775.374,793.919 771.5,784.5C 770.382,773.959 775.048,768.292 785.5,767.5C 788.336,767.59 791.003,768.257 793.5,769.5C 798.637,775.083 802.804,781.416 806,788.5C 821.393,822.637 826.393,858.303 821,895.5C 809.383,959.099 774.883,1005.6 717.5,1035C 679.1,1052.57 639.1,1057.24 597.5,1049C 523,1029.17 475.833,982 456,907.5C 450,870.448 451.667,833.781 461,797.5C 475.175,753.65 500.675,717.817 537.5,690C 559.054,674.056 581.72,659.89 605.5,647.5C 615.753,642.566 625.753,637.232 635.5,631.5C 669.959,615.447 701.959,595.614 731.5,572C 776.666,530.536 797.166,479.036 793,417.5C 786.072,355.13 754.238,310.63 697.5,284C 635.201,260.947 579.201,271.281 529.5,315C 482.834,363.84 470.334,420.34 492,484.5C 495.594,493.347 499.427,502.014 503.5,510.5C 504.474,521.522 499.474,527.189 488.5,527.5C 485.232,527.655 482.232,526.989 479.5,525.5C 449.657,474.067 444.157,420.067 463,363.5C 481.678,317.161 513.178,282.661 557.5,260C 629.477,229.772 696.143,238.438 757.5,286C 806.633,329.691 828.133,384.525 822,450.5C 816.666,517.351 786.833,570.184 732.5,609C 711.789,623.219 690.455,636.386 668.5,648.5 Z"/></g>
<g><path style="opacity:1" fill="#f7f7f8" d="M 635.5,631.5 C 604.001,616.261 574.668,597.761 547.5,576C 527.157,557.766 512.491,535.932 503.5,510.5C 499.427,502.014 495.594,493.347 492,484.5C 470.334,420.34 482.834,363.84 529.5,315C 579.201,271.281 635.201,260.947 697.5,284C 754.238,310.63 786.072,355.13 793,417.5C 797.166,479.036 776.666,530.536 731.5,572C 701.959,595.614 669.959,615.447 635.5,631.5 Z"/></g>
<g><path style="opacity:0.012" fill="#a9aaa9" d="M 1252.5,425.5 C 1253.83,426.167 1253.83,426.167 1252.5,425.5 Z"/></g>
<g><path style="opacity:0.016" fill="#7f80bf" d="M 1255.5,434.5 C 1256.83,435.167 1256.83,435.167 1255.5,434.5 Z"/></g>
<g><path style="opacity:1" fill="#efeff0" d="M 503.5,510.5 C 512.491,535.932 527.157,557.766 547.5,576C 574.668,597.761 604.001,616.261 635.5,631.5C 625.753,637.232 615.753,642.566 605.5,647.5C 580.023,633.927 556.023,618.093 533.5,600C 520.895,588.4 509.395,575.9 499,562.5C 490.931,551.03 484.431,538.696 479.5,525.5C 482.232,526.989 485.232,527.655 488.5,527.5C 499.474,527.189 504.474,521.522 503.5,510.5 Z"/></g>
<g><path style="opacity:1" fill="#c2c2c2" d="M 246.5,534.5 C 252.039,533.638 256.872,534.972 261,538.5C 281.256,566.678 301.756,594.678 322.5,622.5C 342.584,592.917 363.251,563.75 384.5,535C 399.08,532.922 405.913,539.089 405,553.5C 375.524,594.809 344.857,635.142 313,674.5C 293.605,704.124 273.105,732.958 251.5,761C 242.325,763.827 235.492,760.994 231,752.5C 230.333,749.5 230.333,746.5 231,743.5C 255.395,709.948 279.561,676.281 303.5,642.5C 282.944,613.768 261.777,585.435 240,557.5C 234.01,547.49 236.177,539.823 246.5,534.5 Z"/></g>
<g><path style="opacity:1" fill="#efeff0" d="M 668.5,648.5 C 685.27,658.39 701.936,668.557 718.5,679C 745.895,698.058 768.061,721.891 785,750.5C 788.13,756.732 790.963,763.066 793.5,769.5C 791.003,768.257 788.336,767.59 785.5,767.5C 775.048,768.292 770.382,773.959 771.5,784.5C 767.156,776.82 762.99,768.82 759,760.5C 749.072,743.566 736.572,728.732 721.5,716C 695.818,695.816 668.152,678.649 638.5,664.5C 648.175,658.661 658.175,653.328 668.5,648.5 Z"/></g>
<g><path style="opacity:1" fill="#c2c2c3" d="M 350.5,659.5 C 352.017,659.511 353.184,660.177 354,661.5C 374,688.833 394,716.167 414,743.5C 414.414,756.75 407.914,762.917 394.5,762C 391.705,760.207 389.205,758.04 387,755.5C 369.667,730.833 352.333,706.167 335,681.5C 334.333,680.833 334.333,680.167 335,679.5C 340.417,672.984 345.584,666.317 350.5,659.5 Z"/></g>
<g><path style="opacity:1" fill="#f7f7f8" d="M 638.5,664.5 C 668.152,678.649 695.818,695.816 721.5,716C 736.572,728.732 749.072,743.566 759,760.5C 762.99,768.82 767.156,776.82 771.5,784.5C 775.374,793.919 779.541,803.252 784,812.5C 791.353,832.901 794.353,853.901 793,875.5C 787.525,938.988 756.025,984.155 698.5,1011C 636.293,1034.53 580.293,1024.53 530.5,981C 500.671,951.835 484.505,916.335 482,874.5C 478.653,823.207 493.653,778.207 527,739.5C 559.7,707.985 596.867,682.985 638.5,664.5 Z"/></g>
<g><path style="opacity:0.008" fill="#7f807f" d="M 23.5,850.5 C 24.8333,851.167 24.8333,851.167 23.5,850.5 Z"/></g>
<g><path style="opacity:0.004" fill="#0000ff" d="M 1258.5,850.5 C 1259.83,851.167 1259.83,851.167 1258.5,850.5 Z"/></g>
<g><path style="opacity:0.004" fill="#fefffe" d="M 1256.5,857.5 C 1257.83,858.167 1257.83,858.167 1256.5,857.5 Z"/></g>
<g><path style="opacity:0.016" fill="#7f80bf" d="M 26.5,859.5 C 27.8333,860.167 27.8333,860.167 26.5,859.5 Z"/></g>
<g><path style="opacity:0.008" fill="#8080ff" d="M 1255.5,859.5 C 1256.83,860.167 1256.83,860.167 1255.5,859.5 Z"/></g>
<g><path style="opacity:0.004" fill="#fe00ff" d="M 41.5,898.5 C 42.8333,899.167 42.8333,899.167 41.5,898.5 Z"/></g>
<g><path style="opacity:0.008" fill="#fefffe" d="M 419.5,1258.5 C 420.833,1259.17 420.833,1259.17 419.5,1258.5 Z"/></g>
<g><path style="opacity:0.004" fill="#dbfffe" d="M 448.5,1267.5 C 448.103,1268.53 447.437,1268.69 446.5,1268C 447.094,1267.54 447.761,1267.37 448.5,1267.5 Z"/></g>
<g><path style="opacity:0.008" fill="#7f807f" d="M 504.5,1282.5 C 505.833,1283.17 505.833,1283.17 504.5,1282.5 Z"/></g>
</svg>
